<svg width="67" height="84" viewBox="0 0 67 84" fill="none" xmlns="http://www.w3.org/2000/svg">
<path d="M0 64.7236L11.8871 71.9171V83.7759L0 76.8583V64.7236Z" fill="#FDB140"/>
<path d="M11.8867 72.1413L66.9996 43.9766V55.3413L11.8867 84.0001V72.1413Z" fill="#F7941D"/>
<path d="M0 64.7292L54.0323 36.5645L67 43.9998L11.8871 72.1409L0 64.7292Z" fill="#DFDCBF"/>
<path d="M0 47.4355L11.8871 54.3532V66.212L0 59.2944V47.4355Z" fill="#FDB140"/>
<path d="M11.8867 54.3532L66.9996 26.1885V37.5532L11.8867 66.212V54.3532Z" fill="#F7941D"/>
<path d="M0 47.9294L54.0323 19.7646L67 26.6823L11.8871 55.3411L0 47.9294Z" fill="#DFDCBF"/>
<path d="M0 28.165L11.8871 35.0827V46.9415L0 40.0239V28.165Z" fill="#FDB140"/>
<path d="M11.8867 35.0822L66.9996 6.91748V18.2822L11.8867 46.941V35.0822Z" fill="#F7941D"/>
<path d="M0 28.1647L54.0323 0L67 6.91765L11.8871 35.5765L0 28.1647Z" fill="#DFDCBF"/>
<path d="M0 28.1647L54.0323 0L67 6.91765L11.8871 35.5765L0 28.1647Z" fill="#DFDCBF"/>
</svg>
