<svg width="18" height="18" viewBox="0 0 18 18" fill="none" xmlns="http://www.w3.org/2000/svg">
<path d="M15 7.5V5.25C15 4.42157 14.3284 3.75 13.5 3.75H4.5C3.67157 3.75 3 4.42157 3 5.25V7.5M15 7.5V14.25C15 15.0784 14.3284 15.75 13.5 15.75H4.5C3.67157 15.75 3 15.0784 3 14.25V7.5M15 7.5H3M6 2.25V5.25M12 2.25V5.25" stroke="white" stroke-width="1.5" stroke-linecap="round"/>
<path d="M6.375 9H4.875C4.66789 9 4.5 9.16789 4.5 9.375V10.875C4.5 11.0821 4.66789 11.25 4.875 11.25H6.375C6.58211 11.25 6.75 11.0821 6.75 10.875V9.375C6.75 9.16789 6.58211 9 6.375 9Z" fill="white"/>
<path d="M9.75 9H8.25C8.04289 9 7.875 9.16789 7.875 9.375V10.875C7.875 11.0821 8.04289 11.25 8.25 11.25H9.75C9.95711 11.25 10.125 11.0821 10.125 10.875V9.375C10.125 9.16789 9.95711 9 9.75 9Z" fill="white"/>
<path d="M13.125 9H11.625C11.4179 9 11.25 9.16789 11.25 9.375V10.875C11.25 11.0821 11.4179 11.25 11.625 11.25H13.125C13.3321 11.25 13.5 11.0821 13.5 10.875V9.375C13.5 9.16789 13.3321 9 13.125 9Z" fill="white"/>
</svg>
