<svg width="18" height="18" viewBox="0 0 18 18" fill="none" xmlns="http://www.w3.org/2000/svg">
<path d="M6.75 12.75H7.5M6.75 9.75H9M6.75 6.75H7.5M9.75 2.25H6.15C5.30992 2.25 4.88988 2.25 4.56902 2.41349C4.28677 2.5573 4.0573 2.78677 3.91349 3.06902C3.75 3.38988 3.75 3.80992 3.75 4.65V13.35C3.75 14.1901 3.75 14.6102 3.91349 14.931C4.0573 15.2132 4.28677 15.4427 4.56902 15.5865C4.88988 15.75 5.30992 15.75 6.15 15.75H8.25M9.75 2.25L14.25 6.75M9.75 2.25V5.55C9.75 5.97004 9.75 6.18006 9.83175 6.34049C9.90368 6.48161 10.0183 6.59635 10.1595 6.66826C10.3199 6.75 10.5299 6.75 10.95 6.75H14.25M14.25 6.75V8.25M15.75 10.875V13.125H13.5M14.625 15.1771C14.2269 15.5333 13.7013 15.75 13.125 15.75C11.8823 15.75 10.875 14.7427 10.875 13.5C10.875 12.2573 11.8823 11.25 13.125 11.25C14.1047 11.25 14.9381 11.8761 15.247 12.75" stroke="white" stroke-width="1.5" stroke-linecap="round" stroke-linejoin="round"/>
</svg>
