<svg width="24" height="25" viewBox="0 0 24 25" fill="none" xmlns="http://www.w3.org/2000/svg">
<g clip-path="url(#clip0_1802_14743)">
<mask id="mask0_1802_14743" style="mask-type:luminance" maskUnits="userSpaceOnUse" x="0" y="0" width="24" height="25">
<path d="M24 0.0175781H0V24.0176H24V0.0175781Z" fill="white"/>
</mask>
<g mask="url(#mask0_1802_14743)">
<path d="M5.98959 9.39989C5.59907 9.00937 5.59907 8.37621 5.98959 7.98568C6.77889 7.19638 7.71592 6.57028 8.74719 6.14311C9.77846 5.71595 10.8838 5.49609 12 5.49609C13.1162 5.49609 14.2215 5.71595 15.2528 6.14311C16.2841 6.57028 17.2211 7.19638 18.0104 7.98568C18.4009 8.3762 18.4009 9.00937 18.0104 9.39989C17.6199 9.79042 16.9867 9.79042 16.5962 9.39989C15.9926 8.79631 15.2761 8.31753 14.4874 7.99087C13.6988 7.66422 12.8536 7.49609 12 7.49609C11.1464 7.49609 10.3012 7.66422 9.51256 7.99087C8.72394 8.31753 8.00739 8.79631 7.40381 9.39989C7.01328 9.79042 6.38012 9.79042 5.98959 9.39989Z" fill="white"/>
<path d="M8.50002 10.5181C8.10949 10.9086 8.10949 11.5418 8.50002 11.9323C8.89054 12.3228 9.52371 12.3228 9.91423 11.9323C10.1881 11.6584 10.5133 11.4411 10.8712 11.2929C11.2291 11.1446 11.6126 11.0683 12 11.0683C12.3874 11.0683 12.7709 11.1446 13.1288 11.2929C13.4867 11.4411 13.8119 11.6584 14.0858 11.9323C14.4763 12.3228 15.1095 12.3228 15.5 11.9323C15.8905 11.5418 15.8905 10.9086 15.5 10.5181C15.0404 10.0585 14.4947 9.69388 13.8942 9.44513C13.2936 9.19639 12.65 9.06836 12 9.06836C11.35 9.06836 10.7064 9.19639 10.1058 9.44513C9.50529 9.69388 8.95964 10.0585 8.50002 10.5181Z" fill="white"/>
<path fill-rule="evenodd" clip-rule="evenodd" d="M11 16.0176H13V19.0176C13 20.6745 14.3431 22.0176 16 22.0176H18.1707C18.5825 23.1828 19.6938 24.0176 21 24.0176C22.6569 24.0176 24 22.6745 24 21.0176C24 19.3607 22.6569 18.0176 21 18.0176C19.6938 18.0176 18.5825 18.8524 18.1707 20.0176H16C15.4477 20.0176 15 19.5699 15 19.0176V16.0176H17.5C21.0898 16.0176 24 13.1075 24 9.51758C24 6.29018 21.6485 3.61302 18.5648 3.1045C17.2023 1.23522 14.9937 0.0175781 12.5 0.0175781C10.5254 0.0175781 8.72799 0.781735 7.38947 2.02826C7.26046 2.02117 7.1306 2.01758 7 2.01758C3.13401 2.01758 0 5.15159 0 9.01758C0 12.8836 3.13401 16.0176 7 16.0176H9V19.0176C9 19.5699 8.55229 20.0176 8 20.0176H5.82929C5.41746 18.8524 4.30622 18.0176 3 18.0176C1.34315 18.0176 0 19.3607 0 21.0176C0 22.6745 1.34315 24.0176 3 24.0176C4.30622 24.0176 5.41746 23.1828 5.82929 22.0176H8C9.65685 22.0176 11 20.6745 11 19.0176V16.0176ZM12.5 2.01758C10.9199 2.01758 9.4968 2.68256 8.49233 3.75078L8.14327 4.12199L7.63778 4.05777C7.42935 4.03128 7.21651 4.01758 7 4.01758C4.23858 4.01758 2 6.25616 2 9.01758C2 11.779 4.23858 14.0176 7 14.0176H17.5C19.9853 14.0176 22 12.0029 22 9.51758C22 7.16851 20.1993 5.2389 17.9037 5.03538L17.4121 4.9918L17.1477 4.57514C16.1707 3.03572 14.4539 2.01758 12.5 2.01758ZM4 21.0176C4 20.4653 3.55228 20.0176 3 20.0176C2.44772 20.0176 2 20.4653 2 21.0176C2 21.5699 2.44772 22.0176 3 22.0176C3.55228 22.0176 4 21.5699 4 21.0176ZM21 22.0176C20.4477 22.0176 20 21.5699 20 21.0176C20 20.4653 20.4477 20.0176 21 20.0176C21.5523 20.0176 22 20.4653 22 21.0176C22 21.5699 21.5523 22.0176 21 22.0176Z" fill="white"/>
</g>
</g>
<defs>
<clipPath id="clip0_1802_14743">
<rect width="24" height="24" fill="white" transform="translate(0 0.0175781)"/>
</clipPath>
</defs>
</svg>
