<svg width="18" height="18" viewBox="0 0 18 18" fill="none" xmlns="http://www.w3.org/2000/svg">
<path d="M10.8 10.8008H7.2C6.70303 10.8008 6.3 11.2038 6.3 11.7008V15.3008C6.3 15.7978 6.70303 16.2008 7.2 16.2008H10.8C11.297 16.2008 11.7 15.7978 11.7 15.3008V11.7008C11.7 11.2038 11.297 10.8008 10.8 10.8008ZM5.4 2.70078C5.4 2.20381 4.99697 1.80078 4.5 1.80078H0.9C0.403031 1.80078 0 2.20381 0 2.70078V6.30078C0 6.79775 0.403031 7.20078 0.9 7.20078H3.59212L5.64975 10.8019C5.96194 10.2658 6.53625 9.90078 7.2 9.90078H7.20787L5.4 6.737V5.40078H11.7V3.60078H5.4V2.70078ZM17.1 1.80078H13.5C13.003 1.80078 12.6 2.20381 12.6 2.70078V6.30078C12.6 6.79775 13.003 7.20078 13.5 7.20078H17.1C17.597 7.20078 18 6.79775 18 6.30078V2.70078C18 2.20381 17.597 1.80078 17.1 1.80078Z" fill="white"/>
</svg>
