<svg width="24" height="23" viewBox="0 0 24 23" fill="none" xmlns="http://www.w3.org/2000/svg">
<path d="M18.2747 11.4766C19.8049 11.4766 21.2435 10.8794 22.3264 9.79656C24.0107 8.11273 24.4755 5.52153 23.4823 3.34773C23.34 3.04038 23.0563 2.82029 22.7163 2.75816C22.657 2.7482 22.5977 2.74345 22.5384 2.74345C22.2614 2.74345 22.0005 2.85112 21.8032 3.04749L20.1179 4.73416L19.3315 4.67345L19.2708 3.88703L20.9551 2.20131C21.1965 1.96273 21.3042 1.61837 21.244 1.28066C21.1833 0.94579 20.9622 0.661673 20.6535 0.520801C19.9078 0.179766 19.0806 0 18.2596 0C16.7294 0 15.2903 0.595743 14.207 1.67766C12.6982 3.18741 12.157 5.3503 12.766 7.37327L12.01 8.12933L4.18087 0.301192C3.846 -0.0336765 3.25358 -0.0336765 2.91871 0.301192L0.261112 2.95927C-0.0870373 3.30789 -0.0870373 3.8728 0.261112 4.22143L8.08925 12.05L2.70337 17.435C1.7813 18.358 1.77419 19.8507 2.6863 20.7652L3.23888 21.3182C3.6781 21.7574 4.26435 21.9993 4.88856 21.9993C5.52177 21.9993 6.11846 21.7522 6.56859 21.3026L13.4894 14.3813L21.4593 21.7555C21.6339 21.9296 21.862 22.0174 22.0906 22.0174C22.3188 22.0174 22.5474 21.9296 22.722 21.7555C23.0701 21.4074 23.0701 20.842 22.722 20.4938L14.7515 13.1182L16.6322 11.2375C17.1639 11.396 17.7146 11.4766 18.2747 11.4766ZM2.15459 3.59011L3.55003 2.19467L10.7473 9.39244L9.35188 10.7879L2.15459 3.59011ZM15.6319 9.29995L10.0107 14.9211H10.006L5.09631 19.8303C5.03797 19.8877 4.96539 19.919 4.88571 19.919C4.81646 19.919 4.75527 19.8938 4.70879 19.8488L4.15621 19.2962C4.05423 19.1937 4.06372 19.0201 4.17518 18.9077L8.97433 14.1091L9.08389 13.9966L14.7074 8.37171C15.011 8.06482 15.0944 7.61233 14.9204 7.21959C14.3033 5.82225 14.6002 4.2238 15.6769 3.14805C16.3381 2.48637 17.2085 2.11024 18.1391 2.08036L17.4651 2.75436C17.2488 2.9697 17.1388 3.26663 17.1615 3.57114L17.3275 5.72122C17.3674 6.23396 17.7687 6.63665 18.2842 6.67792L20.4258 6.84251C20.4552 6.84535 20.4846 6.84678 20.5145 6.84678C20.7872 6.84678 21.0552 6.73579 21.2501 6.54132L21.9227 5.86826C21.8919 6.78749 21.5172 7.66972 20.8584 8.32807C20.1687 9.01868 19.2504 9.39861 18.2752 9.39861C17.7577 9.39813 17.2573 9.29236 16.7892 9.08556C16.6554 9.02674 16.5136 8.99638 16.367 8.99638C16.0886 8.99543 15.8273 9.10405 15.6319 9.29995Z" fill="white"/>
</svg>
