<svg width="318" height="60" viewBox="0 0 318 60" fill="none" xmlns="http://www.w3.org/2000/svg">
<path d="M0 46.2354L9.40322 51.5285V59.9991L0 55.0579V46.2354Z" fill="#FDB140"/>
<path d="M9.40332 51.5288L53.0001 31.4111V39.5288L9.40332 59.9994V51.5288Z" fill="#F7941D"/>
<path d="M0 46.2348L42.7419 26.1172L53 31.4995L9.40323 51.529L0 46.2348Z" fill="#DFDCBF"/>
<path d="M0 33.8818L9.40322 38.823V47.2936L0 42.3524V33.8818Z" fill="#FDB140"/>
<path d="M9.40332 38.8227L53.0001 18.7051V26.8227L9.40332 47.2933V38.8227Z" fill="#F7941D"/>
<path d="M0 34.2348L42.7419 14.1172L53 19.0584L9.40323 39.529L0 34.2348Z" fill="#DFDCBF"/>
<path d="M0 20.1172L9.40322 25.0584V33.529L0 28.5878V20.1172Z" fill="#FDB140"/>
<path d="M9.40332 25.0591L53.0001 4.94141V13.0591L9.40332 33.5296V25.0591Z" fill="#F7941D"/>
<path d="M0 20.1176L42.7419 0L53 4.94118L9.40323 25.4118L0 20.1176Z" fill="#DFDCBF"/>
<path d="M0 20.1176L42.7419 0L53 4.94118L9.40323 25.4118L0 20.1176Z" fill="#DFDCBF"/>
<path d="M71.4205 45V15.9091H83.5511C85.7292 15.9091 87.5521 16.2169 89.0199 16.8324C90.4972 17.4479 91.6051 18.3097 92.3438 19.4176C93.0919 20.5256 93.4659 21.8087 93.4659 23.267C93.4659 24.375 93.2339 25.3646 92.7699 26.2358C92.3059 27.0975 91.6667 27.8125 90.8523 28.3807C90.0379 28.9489 89.0956 29.3466 88.0256 29.5739V29.858C89.1998 29.9148 90.2841 30.232 91.2784 30.8097C92.2822 31.3873 93.0871 32.1922 93.6932 33.2244C94.2992 34.2472 94.6023 35.4593 94.6023 36.8608C94.6023 38.4233 94.2045 39.8201 93.4091 41.0511C92.6136 42.2727 91.4631 43.2386 89.9574 43.9489C88.4517 44.6496 86.6241 45 84.4744 45H71.4205ZM78.4517 39.3324H82.7983C84.3229 39.3324 85.4451 39.0436 86.1648 38.4659C86.8939 37.8883 87.2585 37.0833 87.2585 36.0511C87.2585 35.303 87.0833 34.6591 86.733 34.1193C86.3826 33.5701 85.8854 33.1487 85.2415 32.8551C84.5975 32.5521 83.8258 32.4006 82.9261 32.4006H78.4517V39.3324ZM78.4517 27.8693H82.3438C83.1108 27.8693 83.7926 27.7415 84.3892 27.4858C84.9858 27.2301 85.4498 26.8608 85.7812 26.3778C86.1222 25.8949 86.2926 25.3125 86.2926 24.6307C86.2926 23.6553 85.947 22.8883 85.2557 22.3295C84.5644 21.7708 83.6316 21.4915 82.4574 21.4915H78.4517V27.8693Z" fill="black"/>
<path d="M109.51 15.9091V45H102.479V15.9091H109.51Z" fill="black"/>
<path d="M118.245 15.9091H126.952L134.338 33.9205H134.679L142.066 15.9091H150.773V45H143.926V27.1307H143.685L136.696 44.8153H132.321L125.333 27.0312H125.091V45H118.245V15.9091Z" fill="black"/>
<path d="M168.875 44.5H163.489V27.0455H169.114C170.807 27.0455 172.256 27.3949 173.46 28.0938C174.665 28.7869 175.588 29.7841 176.23 31.0852C176.872 32.3807 177.193 33.9318 177.193 35.7386C177.193 37.5568 176.869 39.1222 176.222 40.4347C175.574 41.7415 174.631 42.7472 173.392 43.4517C172.153 44.1506 170.648 44.5 168.875 44.5ZM165.602 42.625H168.739C170.182 42.625 171.378 42.3466 172.327 41.7898C173.276 41.233 173.983 40.4403 174.449 39.4119C174.915 38.3835 175.148 37.1591 175.148 35.7386C175.148 34.3295 174.918 33.1165 174.457 32.0994C173.997 31.0767 173.31 30.2926 172.395 29.7472C171.48 29.196 170.341 28.9205 168.977 28.9205H165.602V42.625Z" fill="black"/>
<path d="M186.931 44.8068C186.102 44.8068 185.349 44.6506 184.673 44.3381C183.997 44.0199 183.46 43.5625 183.062 42.9659C182.664 42.3636 182.466 41.6364 182.466 40.7841C182.466 40.0341 182.613 39.4261 182.909 38.9602C183.204 38.4886 183.599 38.1193 184.093 37.8523C184.588 37.5852 185.133 37.3864 185.73 37.2557C186.332 37.1193 186.937 37.0114 187.545 36.9318C188.341 36.8295 188.985 36.7528 189.48 36.7017C189.98 36.6449 190.343 36.5511 190.571 36.4205C190.804 36.2898 190.92 36.0625 190.92 35.7386V35.6705C190.92 34.8295 190.69 34.1761 190.23 33.7102C189.775 33.2443 189.085 33.0114 188.159 33.0114C187.199 33.0114 186.446 33.2216 185.9 33.642C185.355 34.0625 184.971 34.5114 184.75 34.9886L182.841 34.3068C183.181 33.5114 183.636 32.892 184.204 32.4489C184.778 32 185.403 31.6875 186.079 31.5114C186.761 31.3295 187.431 31.2386 188.091 31.2386C188.511 31.2386 188.994 31.2898 189.539 31.392C190.091 31.4886 190.622 31.6903 191.133 31.9972C191.65 32.304 192.079 32.767 192.42 33.3864C192.761 34.0057 192.931 34.8352 192.931 35.875V44.5H190.92V42.7273H190.818C190.681 43.0114 190.454 43.3153 190.136 43.6392C189.818 43.9631 189.395 44.2386 188.866 44.4659C188.338 44.6932 187.693 44.8068 186.931 44.8068ZM187.238 43C188.034 43 188.704 42.8438 189.25 42.5312C189.801 42.2188 190.216 41.8153 190.494 41.321C190.778 40.8267 190.92 40.3068 190.92 39.7614V37.9205C190.835 38.0227 190.647 38.1165 190.358 38.2017C190.074 38.2812 189.744 38.3523 189.369 38.4148C189 38.4716 188.639 38.5227 188.287 38.5682C187.94 38.608 187.659 38.642 187.443 38.6705C186.92 38.7386 186.431 38.8494 185.977 39.0028C185.528 39.1506 185.164 39.375 184.886 39.6761C184.613 39.9716 184.477 40.375 184.477 40.8864C184.477 41.5852 184.735 42.1136 185.252 42.4716C185.775 42.8239 186.437 43 187.238 43Z" fill="black"/>
<path d="M204.675 31.4091V33.1136H197.891V31.4091H204.675ZM199.868 28.2727H201.879V40.75C201.879 41.3182 201.962 41.7443 202.126 42.0284C202.297 42.3068 202.513 42.4943 202.774 42.5909C203.041 42.6818 203.322 42.7273 203.618 42.7273C203.839 42.7273 204.021 42.7159 204.163 42.6932C204.305 42.6648 204.419 42.642 204.504 42.625L204.913 44.4318C204.777 44.483 204.587 44.5341 204.342 44.5852C204.098 44.642 203.788 44.6705 203.413 44.6705C202.845 44.6705 202.288 44.5483 201.743 44.304C201.203 44.0597 200.754 43.6875 200.396 43.1875C200.044 42.6875 199.868 42.0568 199.868 41.2955V28.2727Z" fill="black"/>
<path d="M213.931 44.8068C213.102 44.8068 212.349 44.6506 211.673 44.3381C210.997 44.0199 210.46 43.5625 210.062 42.9659C209.664 42.3636 209.466 41.6364 209.466 40.7841C209.466 40.0341 209.613 39.4261 209.909 38.9602C210.204 38.4886 210.599 38.1193 211.093 37.8523C211.588 37.5852 212.133 37.3864 212.73 37.2557C213.332 37.1193 213.937 37.0114 214.545 36.9318C215.341 36.8295 215.985 36.7528 216.48 36.7017C216.98 36.6449 217.343 36.5511 217.571 36.4205C217.804 36.2898 217.92 36.0625 217.92 35.7386V35.6705C217.92 34.8295 217.69 34.1761 217.23 33.7102C216.775 33.2443 216.085 33.0114 215.159 33.0114C214.199 33.0114 213.446 33.2216 212.9 33.642C212.355 34.0625 211.971 34.5114 211.75 34.9886L209.841 34.3068C210.181 33.5114 210.636 32.892 211.204 32.4489C211.778 32 212.403 31.6875 213.079 31.5114C213.761 31.3295 214.431 31.2386 215.091 31.2386C215.511 31.2386 215.994 31.2898 216.539 31.392C217.091 31.4886 217.622 31.6903 218.133 31.9972C218.65 32.304 219.079 32.767 219.42 33.3864C219.761 34.0057 219.931 34.8352 219.931 35.875V44.5H217.92V42.7273H217.818C217.681 43.0114 217.454 43.3153 217.136 43.6392C216.818 43.9631 216.395 44.2386 215.866 44.4659C215.338 44.6932 214.693 44.8068 213.931 44.8068ZM214.238 43C215.034 43 215.704 42.8438 216.25 42.5312C216.801 42.2188 217.216 41.8153 217.494 41.321C217.778 40.8267 217.92 40.3068 217.92 39.7614V37.9205C217.835 38.0227 217.647 38.1165 217.358 38.2017C217.074 38.2812 216.744 38.3523 216.369 38.4148C216 38.4716 215.639 38.5227 215.287 38.5682C214.94 38.608 214.659 38.642 214.443 38.6705C213.92 38.7386 213.431 38.8494 212.977 39.0028C212.528 39.1506 212.164 39.375 211.886 39.6761C211.613 39.9716 211.477 40.375 211.477 40.8864C211.477 41.5852 211.735 42.1136 212.252 42.4716C212.775 42.8239 213.437 43 214.238 43Z" fill="black"/>
<path d="M226.161 44.5V27.0455H228.172V33.4886H228.342C228.49 33.2614 228.695 32.9716 228.956 32.6193C229.223 32.2614 229.604 31.9432 230.098 31.6648C230.598 31.3807 231.274 31.2386 232.126 31.2386C233.229 31.2386 234.2 31.5142 235.041 32.0653C235.882 32.6165 236.538 33.3977 237.01 34.4091C237.482 35.4205 237.717 36.6136 237.717 37.9886C237.717 39.375 237.482 40.5767 237.01 41.5938C236.538 42.6051 235.885 43.3892 235.05 43.946C234.214 44.4972 233.251 44.7727 232.161 44.7727C231.32 44.7727 230.646 44.6335 230.141 44.3551C229.635 44.071 229.246 43.75 228.973 43.392C228.7 43.0284 228.49 42.7273 228.342 42.4886H228.104V44.5H226.161ZM228.138 37.9545C228.138 38.9432 228.283 39.8153 228.572 40.571C228.862 41.321 229.286 41.9091 229.842 42.3352C230.399 42.7557 231.081 42.9659 231.888 42.9659C232.729 42.9659 233.43 42.7443 233.993 42.3011C234.561 41.8523 234.987 41.25 235.271 40.4943C235.561 39.733 235.706 38.8864 235.706 37.9545C235.706 37.0341 235.564 36.2045 235.28 35.4659C235.001 34.7216 234.578 34.1335 234.01 33.7017C233.447 33.2642 232.74 33.0455 231.888 33.0455C231.07 33.0455 230.382 33.2528 229.825 33.6676C229.268 34.0767 228.848 34.6506 228.564 35.3892C228.28 36.1222 228.138 36.9773 228.138 37.9545Z" fill="black"/>
<path d="M246.931 44.8068C246.102 44.8068 245.349 44.6506 244.673 44.3381C243.997 44.0199 243.46 43.5625 243.062 42.9659C242.664 42.3636 242.466 41.6364 242.466 40.7841C242.466 40.0341 242.613 39.4261 242.909 38.9602C243.204 38.4886 243.599 38.1193 244.093 37.8523C244.588 37.5852 245.133 37.3864 245.73 37.2557C246.332 37.1193 246.937 37.0114 247.545 36.9318C248.341 36.8295 248.985 36.7528 249.48 36.7017C249.98 36.6449 250.343 36.5511 250.571 36.4205C250.804 36.2898 250.92 36.0625 250.92 35.7386V35.6705C250.92 34.8295 250.69 34.1761 250.23 33.7102C249.775 33.2443 249.085 33.0114 248.159 33.0114C247.199 33.0114 246.446 33.2216 245.9 33.642C245.355 34.0625 244.971 34.5114 244.75 34.9886L242.841 34.3068C243.181 33.5114 243.636 32.892 244.204 32.4489C244.778 32 245.403 31.6875 246.079 31.5114C246.761 31.3295 247.431 31.2386 248.091 31.2386C248.511 31.2386 248.994 31.2898 249.539 31.392C250.091 31.4886 250.622 31.6903 251.133 31.9972C251.65 32.304 252.079 32.767 252.42 33.3864C252.761 34.0057 252.931 34.8352 252.931 35.875V44.5H250.92V42.7273H250.818C250.681 43.0114 250.454 43.3153 250.136 43.6392C249.818 43.9631 249.395 44.2386 248.866 44.4659C248.338 44.6932 247.693 44.8068 246.931 44.8068ZM247.238 43C248.034 43 248.704 42.8438 249.25 42.5312C249.801 42.2188 250.216 41.8153 250.494 41.321C250.778 40.8267 250.92 40.3068 250.92 39.7614V37.9205C250.835 38.0227 250.647 38.1165 250.358 38.2017C250.074 38.2812 249.744 38.3523 249.369 38.4148C249 38.4716 248.639 38.5227 248.287 38.5682C247.94 38.608 247.659 38.642 247.443 38.6705C246.92 38.7386 246.431 38.8494 245.977 39.0028C245.528 39.1506 245.164 39.375 244.886 39.6761C244.613 39.9716 244.477 40.375 244.477 40.8864C244.477 41.5852 244.735 42.1136 245.252 42.4716C245.775 42.8239 246.437 43 247.238 43Z" fill="black"/>
<path d="M268.344 34.3409L266.537 34.8523C266.424 34.5511 266.256 34.2585 266.034 33.9744C265.819 33.6847 265.523 33.446 265.148 33.2585C264.773 33.071 264.293 32.9773 263.708 32.9773C262.907 32.9773 262.239 33.1619 261.705 33.5312C261.176 33.8949 260.912 34.358 260.912 34.9205C260.912 35.4205 261.094 35.8153 261.458 36.1051C261.821 36.3949 262.39 36.6364 263.162 36.8295L265.105 37.3068C266.276 37.5909 267.148 38.0256 267.722 38.6108C268.296 39.1903 268.583 39.9375 268.583 40.8523C268.583 41.6023 268.367 42.2727 267.935 42.8636C267.509 43.4545 266.912 43.9205 266.145 44.2614C265.378 44.6023 264.486 44.7727 263.469 44.7727C262.134 44.7727 261.029 44.483 260.154 43.9034C259.279 43.3239 258.725 42.4773 258.492 41.3636L260.401 40.8864C260.583 41.5909 260.926 42.1193 261.432 42.4716C261.944 42.8239 262.611 43 263.435 43C264.373 43 265.117 42.8011 265.668 42.4034C266.225 42 266.503 41.517 266.503 40.9545C266.503 40.5 266.344 40.1193 266.026 39.8125C265.708 39.5 265.219 39.267 264.56 39.1136L262.378 38.6023C261.179 38.3182 260.299 37.8778 259.736 37.2812C259.179 36.679 258.901 35.9261 258.901 35.0227C258.901 34.2841 259.108 33.6307 259.523 33.0625C259.944 32.4943 260.515 32.0483 261.236 31.7244C261.963 31.4006 262.787 31.2386 263.708 31.2386C265.003 31.2386 266.02 31.5227 266.759 32.0909C267.503 32.6591 268.032 33.4091 268.344 34.3409Z" fill="black"/>
<path d="M279.345 44.7727C278.084 44.7727 276.996 44.4943 276.081 43.9375C275.172 43.375 274.47 42.5909 273.976 41.5852C273.487 40.5739 273.243 39.3977 273.243 38.0568C273.243 36.7159 273.487 35.5341 273.976 34.5114C274.47 33.483 275.158 32.6818 276.038 32.108C276.925 31.5284 277.959 31.2386 279.141 31.2386C279.822 31.2386 280.496 31.3523 281.161 31.5795C281.825 31.8068 282.43 32.1761 282.976 32.6875C283.521 33.1932 283.956 33.8636 284.28 34.6989C284.604 35.5341 284.766 36.5625 284.766 37.7841V38.6364H274.675V36.8977H282.72C282.72 36.1591 282.572 35.5 282.277 34.9205C281.987 34.3409 281.572 33.8835 281.033 33.5483C280.499 33.2131 279.868 33.0455 279.141 33.0455C278.339 33.0455 277.646 33.2443 277.061 33.642C276.482 34.0341 276.036 34.5455 275.723 35.1761C275.411 35.8068 275.254 36.483 275.254 37.2045V38.3636C275.254 39.3523 275.425 40.1903 275.766 40.8778C276.112 41.5597 276.592 42.0795 277.206 42.4375C277.82 42.7898 278.533 42.9659 279.345 42.9659C279.874 42.9659 280.351 42.892 280.777 42.7443C281.209 42.5909 281.581 42.3636 281.893 42.0625C282.206 41.7557 282.447 41.375 282.618 40.9205L284.561 41.4659C284.357 42.125 284.013 42.7045 283.53 43.2045C283.047 43.6989 282.45 44.0852 281.74 44.3636C281.03 44.6364 280.232 44.7727 279.345 44.7727Z" fill="black"/>
</svg>
