<svg width="400" height="84" viewBox="0 0 400 84" fill="none" xmlns="http://www.w3.org/2000/svg">
<path d="M0 64.7236L11.8871 71.9171V83.7759L0 76.8583V64.7236Z" fill="#FDB140"/>
<path d="M11.8867 72.1413L66.9996 43.9766V55.3413L11.8867 84.0001V72.1413Z" fill="#F7941D"/>
<path d="M0 64.7292L54.0323 36.5645L67 43.9998L11.8871 72.1409L0 64.7292Z" fill="#DFDCBF"/>
<path d="M0 47.4355L11.8871 54.3532V66.212L0 59.2944V47.4355Z" fill="#FDB140"/>
<path d="M11.8867 54.3532L66.9996 26.1885V37.5532L11.8867 66.212V54.3532Z" fill="#F7941D"/>
<path d="M0 47.9294L54.0323 19.7646L67 26.6823L11.8871 55.3411L0 47.9294Z" fill="#DFDCBF"/>
<path d="M0 28.165L11.8871 35.0827V46.9415L0 40.0239V28.165Z" fill="#FDB140"/>
<path d="M11.8867 35.0822L66.9996 6.91748V18.2822L11.8867 46.941V35.0822Z" fill="#F7941D"/>
<path d="M0 28.1647L54.0323 0L67 6.91765L11.8871 35.5765L0 28.1647Z" fill="#DFDCBF"/>
<path d="M0 28.1647L54.0323 0L67 6.91765L11.8871 35.5765L0 28.1647Z" fill="#DFDCBF"/>
<path d="M86.4886 62V21.2727H103.472C106.521 21.2727 109.073 21.7036 111.128 22.5653C113.196 23.4271 114.747 24.6335 115.781 26.1847C116.829 27.7358 117.352 29.5322 117.352 31.5739C117.352 33.125 117.027 34.5104 116.378 35.7301C115.728 36.9366 114.833 37.9375 113.693 38.733C112.553 39.5284 111.234 40.0852 109.736 40.4034V40.8011C111.38 40.8807 112.898 41.3248 114.29 42.1335C115.695 42.9422 116.822 44.0691 117.67 45.5142C118.519 46.946 118.943 48.643 118.943 50.6051C118.943 52.7926 118.386 54.7481 117.273 56.4716C116.159 58.1818 114.548 59.5341 112.44 60.5284C110.332 61.5095 107.774 62 104.764 62H86.4886ZM96.3324 54.0653H102.418C104.552 54.0653 106.123 53.661 107.131 52.8523C108.152 52.0436 108.662 50.9167 108.662 49.4716C108.662 48.4242 108.417 47.5227 107.926 46.767C107.436 45.9981 106.74 45.4081 105.838 44.9972C104.937 44.5729 103.856 44.3608 102.597 44.3608H96.3324V54.0653ZM96.3324 38.017H101.781C102.855 38.017 103.81 37.8381 104.645 37.4801C105.48 37.1222 106.13 36.6051 106.594 35.929C107.071 35.2528 107.31 34.4375 107.31 33.483C107.31 32.1174 106.826 31.0436 105.858 30.2614C104.89 29.4792 103.584 29.0881 101.94 29.0881H96.3324V38.017Z" fill="white"/>
<path d="M138.414 21.2727V62H128.571V21.2727H138.414Z" fill="white"/>
<path d="M149.243 21.2727H161.433L171.774 46.4886H172.251L182.592 21.2727H194.782V62H185.197V36.983H184.859L175.075 61.7415H168.95L159.166 36.8438H158.828V62H149.243V21.2727Z" fill="white"/>
<path d="M216 59.5H208.818V36.2273H216.318C218.576 36.2273 220.508 36.6932 222.114 37.625C223.72 38.5492 224.951 39.8788 225.807 41.6136C226.663 43.3409 227.091 45.4091 227.091 47.8182C227.091 50.2424 226.659 52.3295 225.795 54.0795C224.932 55.822 223.674 57.1629 222.023 58.1023C220.371 59.0341 218.364 59.5 216 59.5ZM211.636 57H215.818C217.742 57 219.337 56.6288 220.602 55.8864C221.867 55.1439 222.811 54.0871 223.432 52.7159C224.053 51.3447 224.364 49.7121 224.364 47.8182C224.364 45.9394 224.057 44.322 223.443 42.9659C222.83 41.6023 221.913 40.5568 220.693 39.8295C219.473 39.0947 217.955 38.7273 216.136 38.7273H211.636V57Z" fill="white"/>
<path d="M239.075 59.9091C237.969 59.9091 236.965 59.7008 236.064 59.2841C235.162 58.8598 234.446 58.25 233.916 57.4545C233.386 56.6515 233.121 55.6818 233.121 54.5455C233.121 53.5455 233.318 52.7348 233.712 52.1136C234.106 51.4848 234.632 50.9924 235.291 50.6364C235.95 50.2803 236.678 50.0152 237.473 49.8409C238.276 49.6591 239.083 49.5152 239.893 49.4091C240.954 49.2727 241.814 49.1705 242.473 49.1023C243.14 49.0265 243.625 48.9015 243.928 48.7273C244.238 48.553 244.393 48.25 244.393 47.8182V47.7273C244.393 46.6061 244.087 45.7348 243.473 45.1136C242.867 44.4924 241.946 44.1818 240.712 44.1818C239.431 44.1818 238.428 44.4621 237.7 45.0227C236.973 45.5833 236.462 46.1818 236.166 46.8182L233.621 45.9091C234.075 44.8485 234.681 44.0227 235.439 43.4318C236.204 42.8333 237.037 42.4167 237.939 42.1818C238.848 41.9394 239.742 41.8182 240.621 41.8182C241.181 41.8182 241.825 41.8864 242.553 42.0227C243.287 42.1515 243.996 42.4205 244.678 42.8295C245.367 43.2386 245.939 43.8561 246.393 44.6818C246.848 45.5076 247.075 46.6136 247.075 48V59.5H244.393V57.1364H244.257C244.075 57.5152 243.772 57.9205 243.348 58.3523C242.924 58.7841 242.359 59.1515 241.655 59.4545C240.95 59.7576 240.09 59.9091 239.075 59.9091ZM239.484 57.5C240.545 57.5 241.439 57.2917 242.166 56.875C242.901 56.4583 243.454 55.9205 243.825 55.2614C244.204 54.6023 244.393 53.9091 244.393 53.1818V50.7273C244.28 50.8636 244.03 50.9886 243.643 51.1023C243.265 51.2083 242.825 51.303 242.325 51.3864C241.833 51.4621 241.352 51.5303 240.882 51.5909C240.42 51.6439 240.045 51.6894 239.757 51.7273C239.06 51.8182 238.409 51.9659 237.803 52.1705C237.204 52.3674 236.719 52.6667 236.348 53.0682C235.984 53.4621 235.803 54 235.803 54.6818C235.803 55.6136 236.147 56.3182 236.837 56.7955C237.534 57.2652 238.416 57.5 239.484 57.5Z" fill="white"/>
<path d="M262.233 42.0455V44.3182H253.188V42.0455H262.233ZM255.824 37.8636H258.506V54.5C258.506 55.2576 258.616 55.8258 258.835 56.2045C259.063 56.5758 259.35 56.8258 259.699 56.9545C260.055 57.0758 260.43 57.1364 260.824 57.1364C261.119 57.1364 261.362 57.1212 261.551 57.0909C261.741 57.053 261.892 57.0227 262.006 57L262.551 59.4091C262.369 59.4773 262.116 59.5455 261.79 59.6136C261.464 59.6894 261.051 59.7273 260.551 59.7273C259.794 59.7273 259.051 59.5644 258.324 59.2386C257.604 58.9129 257.006 58.4167 256.528 57.75C256.059 57.0833 255.824 56.2424 255.824 55.2273V37.8636Z" fill="white"/>
<path d="M274.075 59.9091C272.969 59.9091 271.965 59.7008 271.064 59.2841C270.162 58.8598 269.446 58.25 268.916 57.4545C268.386 56.6515 268.121 55.6818 268.121 54.5455C268.121 53.5455 268.318 52.7348 268.712 52.1136C269.106 51.4848 269.632 50.9924 270.291 50.6364C270.95 50.2803 271.678 50.0152 272.473 49.8409C273.276 49.6591 274.083 49.5152 274.893 49.4091C275.954 49.2727 276.814 49.1705 277.473 49.1023C278.14 49.0265 278.625 48.9015 278.928 48.7273C279.238 48.553 279.393 48.25 279.393 47.8182V47.7273C279.393 46.6061 279.087 45.7348 278.473 45.1136C277.867 44.4924 276.946 44.1818 275.712 44.1818C274.431 44.1818 273.428 44.4621 272.7 45.0227C271.973 45.5833 271.462 46.1818 271.166 46.8182L268.621 45.9091C269.075 44.8485 269.681 44.0227 270.439 43.4318C271.204 42.8333 272.037 42.4167 272.939 42.1818C273.848 41.9394 274.742 41.8182 275.621 41.8182C276.181 41.8182 276.825 41.8864 277.553 42.0227C278.287 42.1515 278.996 42.4205 279.678 42.8295C280.367 43.2386 280.939 43.8561 281.393 44.6818C281.848 45.5076 282.075 46.6136 282.075 48V59.5H279.393V57.1364H279.257C279.075 57.5152 278.772 57.9205 278.348 58.3523C277.924 58.7841 277.359 59.1515 276.655 59.4545C275.95 59.7576 275.09 59.9091 274.075 59.9091ZM274.484 57.5C275.545 57.5 276.439 57.2917 277.166 56.875C277.901 56.4583 278.454 55.9205 278.825 55.2614C279.204 54.6023 279.393 53.9091 279.393 53.1818V50.7273C279.28 50.8636 279.03 50.9886 278.643 51.1023C278.265 51.2083 277.825 51.303 277.325 51.3864C276.833 51.4621 276.352 51.5303 275.882 51.5909C275.42 51.6439 275.045 51.6894 274.757 51.7273C274.06 51.8182 273.409 51.9659 272.803 52.1705C272.204 52.3674 271.719 52.6667 271.348 53.0682C270.984 53.4621 270.803 54 270.803 54.6818C270.803 55.6136 271.147 56.3182 271.837 56.7955C272.534 57.2652 273.416 57.5 274.484 57.5Z" fill="white"/>
<path d="M289.881 59.5V36.2273H292.562V44.8182H292.79C292.987 44.5152 293.259 44.1288 293.608 43.6591C293.964 43.1818 294.472 42.7576 295.131 42.3864C295.797 42.0076 296.699 41.8182 297.835 41.8182C299.305 41.8182 300.6 42.1856 301.722 42.9205C302.843 43.6553 303.718 44.697 304.347 46.0455C304.975 47.3939 305.29 48.9848 305.29 50.8182C305.29 52.6667 304.975 54.2689 304.347 55.625C303.718 56.9735 302.847 58.0189 301.733 58.7614C300.619 59.4962 299.335 59.8636 297.881 59.8636C296.759 59.8636 295.862 59.678 295.188 59.3068C294.513 58.928 293.994 58.5 293.631 58.0227C293.267 57.5379 292.987 57.1364 292.79 56.8182H292.472V59.5H289.881ZM292.517 50.7727C292.517 52.0909 292.71 53.2538 293.097 54.2614C293.483 55.2614 294.047 56.0455 294.79 56.6136C295.532 57.1742 296.441 57.4545 297.517 57.4545C298.638 57.4545 299.574 57.1591 300.324 56.5682C301.081 55.9697 301.65 55.1667 302.028 54.1591C302.415 53.1439 302.608 52.0152 302.608 50.7727C302.608 49.5455 302.419 48.4394 302.04 47.4545C301.669 46.4621 301.104 45.678 300.347 45.1023C299.597 44.5189 298.653 44.2273 297.517 44.2273C296.426 44.2273 295.509 44.5038 294.767 45.0568C294.025 45.6023 293.464 46.3674 293.085 47.3523C292.706 48.3295 292.517 49.4697 292.517 50.7727Z" fill="white"/>
<path d="M317.075 59.9091C315.969 59.9091 314.965 59.7008 314.064 59.2841C313.162 58.8598 312.446 58.25 311.916 57.4545C311.386 56.6515 311.121 55.6818 311.121 54.5455C311.121 53.5455 311.318 52.7348 311.712 52.1136C312.106 51.4848 312.632 50.9924 313.291 50.6364C313.95 50.2803 314.678 50.0152 315.473 49.8409C316.276 49.6591 317.083 49.5152 317.893 49.4091C318.954 49.2727 319.814 49.1705 320.473 49.1023C321.14 49.0265 321.625 48.9015 321.928 48.7273C322.238 48.553 322.393 48.25 322.393 47.8182V47.7273C322.393 46.6061 322.087 45.7348 321.473 45.1136C320.867 44.4924 319.946 44.1818 318.712 44.1818C317.431 44.1818 316.428 44.4621 315.7 45.0227C314.973 45.5833 314.462 46.1818 314.166 46.8182L311.621 45.9091C312.075 44.8485 312.681 44.0227 313.439 43.4318C314.204 42.8333 315.037 42.4167 315.939 42.1818C316.848 41.9394 317.742 41.8182 318.621 41.8182C319.181 41.8182 319.825 41.8864 320.553 42.0227C321.287 42.1515 321.996 42.4205 322.678 42.8295C323.367 43.2386 323.939 43.8561 324.393 44.6818C324.848 45.5076 325.075 46.6136 325.075 48V59.5H322.393V57.1364H322.257C322.075 57.5152 321.772 57.9205 321.348 58.3523C320.924 58.7841 320.359 59.1515 319.655 59.4545C318.95 59.7576 318.09 59.9091 317.075 59.9091ZM317.484 57.5C318.545 57.5 319.439 57.2917 320.166 56.875C320.901 56.4583 321.454 55.9205 321.825 55.2614C322.204 54.6023 322.393 53.9091 322.393 53.1818V50.7273C322.28 50.8636 322.03 50.9886 321.643 51.1023C321.265 51.2083 320.825 51.303 320.325 51.3864C319.833 51.4621 319.352 51.5303 318.882 51.5909C318.42 51.6439 318.045 51.6894 317.757 51.7273C317.06 51.8182 316.409 51.9659 315.803 52.1705C315.204 52.3674 314.719 52.6667 314.348 53.0682C313.984 53.4621 313.803 54 313.803 54.6818C313.803 55.6136 314.147 56.3182 314.837 56.7955C315.534 57.2652 316.416 57.5 317.484 57.5Z" fill="white"/>
<path d="M344.959 45.9545L342.55 46.6364C342.398 46.2348 342.175 45.8447 341.879 45.4659C341.591 45.0795 341.197 44.7614 340.697 44.5114C340.197 44.2614 339.557 44.1364 338.777 44.1364C337.709 44.1364 336.819 44.3826 336.107 44.875C335.402 45.3598 335.05 45.9773 335.05 46.7273C335.05 47.3939 335.292 47.9205 335.777 48.3068C336.262 48.6932 337.019 49.0152 338.05 49.2727L340.641 49.9091C342.201 50.2879 343.364 50.8674 344.129 51.6477C344.894 52.4205 345.277 53.4167 345.277 54.6364C345.277 55.6364 344.989 56.5303 344.413 57.3182C343.845 58.1061 343.05 58.7273 342.027 59.1818C341.004 59.6364 339.815 59.8636 338.459 59.8636C336.679 59.8636 335.205 59.4773 334.038 58.7045C332.872 57.9318 332.133 56.803 331.822 55.3182L334.368 54.6818C334.61 55.6212 335.069 56.3258 335.743 56.7955C336.425 57.2652 337.315 57.5 338.413 57.5C339.663 57.5 340.656 57.2348 341.391 56.7045C342.133 56.1667 342.504 55.5227 342.504 54.7727C342.504 54.1667 342.292 53.6591 341.868 53.25C341.444 52.8333 340.792 52.5227 339.913 52.3182L337.004 51.6364C335.406 51.2576 334.232 50.6705 333.482 49.875C332.739 49.072 332.368 48.0682 332.368 46.8636C332.368 45.8788 332.644 45.0076 333.197 44.25C333.758 43.4924 334.519 42.8977 335.482 42.4659C336.451 42.0341 337.55 41.8182 338.777 41.8182C340.504 41.8182 341.86 42.197 342.845 42.9545C343.838 43.7121 344.542 44.7121 344.959 45.9545Z" fill="white"/>
<path d="M358.96 59.8636C357.278 59.8636 355.828 59.4924 354.608 58.75C353.396 58 352.46 56.9545 351.801 55.6136C351.15 54.2652 350.824 52.697 350.824 50.9091C350.824 49.1212 351.15 47.5455 351.801 46.1818C352.46 44.8106 353.377 43.7424 354.551 42.9773C355.733 42.2045 357.112 41.8182 358.688 41.8182C359.597 41.8182 360.494 41.9697 361.381 42.2727C362.267 42.5758 363.074 43.0682 363.801 43.75C364.528 44.4242 365.108 45.3182 365.54 46.4318C365.972 47.5455 366.188 48.9167 366.188 50.5455V51.6818H352.733V49.3636H363.46C363.46 48.3788 363.263 47.5 362.869 46.7273C362.483 45.9545 361.93 45.3447 361.21 44.8977C360.498 44.4508 359.657 44.2273 358.688 44.2273C357.619 44.2273 356.695 44.4924 355.915 45.0227C355.142 45.5455 354.547 46.2273 354.131 47.0682C353.714 47.9091 353.506 48.8106 353.506 49.7727V51.3182C353.506 52.6364 353.733 53.7538 354.188 54.6705C354.65 55.5795 355.29 56.2727 356.108 56.75C356.926 57.2197 357.877 57.4545 358.96 57.4545C359.665 57.4545 360.301 57.3561 360.869 57.1591C361.445 56.9545 361.941 56.6515 362.358 56.25C362.775 55.8409 363.097 55.3333 363.324 54.7273L365.915 55.4545C365.642 56.3333 365.184 57.1061 364.54 57.7727C363.896 58.4318 363.1 58.947 362.153 59.3182C361.206 59.6818 360.142 59.8636 358.96 59.8636Z" fill="white"/>
</svg>
